<svg width="30" height="30" viewBox="0 0 30 30" fill="none" xmlns="http://www.w3.org/2000/svg">
<path d="M5.61921 9.30109C4.43388 10.1473 3.47287 11.0522 2.73646 11.8497C1.07157 13.6527 1.07157 16.3472 2.73646 18.1502C4.89571 20.4887 8.98582 23.75 14.9998 23.75C16.6196 23.75 18.0997 23.5135 19.4402 23.1221L17.3617 21.0436C16.6168 21.1761 15.8296 21.25 14.9998 21.25C9.95846 21.25 6.48523 18.525 4.57318 16.4542C3.79266 15.609 3.79266 14.391 4.57318 13.5457C5.29676 12.7621 6.24391 11.8848 7.41501 11.0969L5.61921 9.30109Z" fill="#004877"/>
<path d="M10.6664 14.348C10.6346 14.5607 10.6182 14.7784 10.6182 15C10.6182 17.4162 12.5769 19.375 14.9932 19.375C15.2147 19.375 15.4324 19.3585 15.6452 19.3267L10.6664 14.348Z" fill="#004877"/>
<path d="M19.3326 15.5589L14.4341 10.6604C14.6171 10.637 14.8036 10.625 14.993 10.625C17.4092 10.625 19.368 12.5838 19.368 15C19.368 15.1894 19.356 15.3759 19.3326 15.5589Z" fill="#004877"/>
<path d="M22.6396 18.866C23.7853 18.0877 24.7142 17.2256 25.4264 16.4542C26.2069 15.609 26.2069 14.391 25.4264 13.5457C23.5144 11.475 20.0412 8.75 14.9998 8.75C14.1991 8.75 13.4379 8.81874 12.7163 8.94269L10.6309 6.85727C11.9524 6.47825 13.4088 6.25 14.9998 6.25C21.0138 6.25 25.1039 9.51131 27.2632 11.8497C28.9281 13.6527 28.9281 16.3472 27.2632 18.1502C26.5379 18.9357 25.5948 19.8254 24.4341 20.6605L22.6396 18.866Z" fill="#004877"/>
<path d="M2.50968 4.27759C2.02151 3.78944 2.02151 2.99798 2.50968 2.50983C2.99783 2.02167 3.78929 2.02167 4.27744 2.50983L27.5003 25.7328C27.9886 26.2209 27.9886 27.0124 27.5003 27.5005C27.0122 27.9886 26.2207 27.9886 25.7326 27.5005L2.50968 4.27759Z" fill="#004877"/>
</svg>
