<svg width="26" height="26" viewBox="0 0 26 26" fill="none" xmlns="http://www.w3.org/2000/svg">
<path d="M1 25V23C1 18.9499 4.28324 15.6667 8.33333 15.6667H12.3333C16.3835 15.6667 19.6667 18.9499 19.6667 23V25M5 25V21M15.6667 25V21M17.6667 5L18.1156 4.32657C18.5959 3.60615 19.5828 3.43709 20.2755 3.9566C21.0097 4.50729 21.086 5.58065 20.4371 6.22965L19.4715 7.19527C19.1696 7.49709 19 7.90648 19 8.33333M19 10.3333V10.6M14.1041 3.53068C15.1913 1.99927 16.9789 1 19 1C22.3137 1 25 3.68629 25 7C25 10.3137 22.3137 13 19 13C17.3399 13 15.8372 12.3257 14.7508 11.2361M15.6667 7.66668C15.6667 4.72115 13.2788 2.33333 10.3333 2.33333C7.38781 2.33333 5 4.72115 5 7.66668C5 10.6123 7.38781 13 10.3333 13C11.4416 13 12.4709 12.662 13.3239 12.0833C14.7377 11.1241 15.6667 9.50392 15.6667 7.66668Z" stroke="#ECECEB" stroke-width="2" stroke-linecap="round" stroke-linejoin="round"/>
</svg>
