<svg width="16" height="16" viewBox="0 0 16 16" fill="none" xmlns="http://www.w3.org/2000/svg">
<path d="M15.7397 0.26031C15.3927 -0.0867702 14.8299 -0.0867702 14.4828 0.26031L7.99999 6.74315L1.51718 0.26031C1.17011 -0.0867702 0.607383 -0.0867702 0.260311 0.26031C-0.0867703 0.607382 -0.0867703 1.17011 0.260311 1.51718L6.74313 8.00001L0.260329 14.4828C-0.0867525 14.8299 -0.0867525 15.3926 0.260329 15.7397C0.607401 16.0868 1.17013 16.0868 1.5172 15.7397L7.99999 9.25687L14.4828 15.7397C14.8299 16.0868 15.3927 16.0868 15.7397 15.7397C16.0868 15.3926 16.0868 14.8299 15.7397 14.4828L9.25685 8.00001L15.7397 1.51718C16.0868 1.17011 16.0868 0.607382 15.7397 0.26031Z" fill="#CB0202"/>
</svg>
