<svg width="26" height="24" viewBox="0 0 26 24" fill="none" xmlns="http://www.w3.org/2000/svg">
<path d="M22.3333 18.3333V22.3333M22.3333 14.3333H22.3467M17 19.6667H5.26667C3.7732 19.6667 3.02645 19.6667 2.45603 19.376C1.95425 19.1204 1.54631 18.7124 1.29065 18.2107C1 17.6403 1 16.8935 1 15.4V5.26667C1 3.7732 1 3.02645 1.29065 2.45603C1.54631 1.95425 1.95425 1.54631 2.45603 1.29065C3.02645 1 3.7732 1 5.26667 1H20.7333C22.2268 1 22.9736 1 23.544 1.29065C24.0457 1.54631 24.4537 1.95425 24.7093 2.45603C25 3.02645 25 3.7732 25 5.26667V9.66667M24.4756 5.34972L17.7332 9.84467C16.0225 10.9851 15.1672 11.5553 14.2427 11.7769C13.4256 11.9727 12.5739 11.9727 11.7569 11.7769C10.8324 11.5553 9.97705 10.9851 8.26633 9.84467L1.19661 5.13151" stroke="#ECECEB" stroke-width="2" stroke-linecap="round" stroke-linejoin="round"/>
</svg>
