<svg width="30" height="30" viewBox="0 0 30 30" fill="none" xmlns="http://www.w3.org/2000/svg">
<path d="M18.75 15C18.75 17.074 17.074 18.75 15 18.75C12.926 18.75 11.25 17.074 11.25 15C11.25 12.926 12.926 11.25 15 11.25C17.074 11.25 18.75 12.926 18.75 15Z" stroke="#004877" stroke-width="2" stroke-linecap="round" stroke-linejoin="round"/>
<path d="M14.9998 24.0875C19.4123 24.0875 23.5248 21.8016 26.3873 17.8455C27.5123 16.296 27.5123 13.6915 26.3873 12.142C23.5248 8.18576 19.4123 5.89996 14.9998 5.89996C10.5873 5.89996 6.4748 8.18576 3.6123 12.142C2.4873 13.6915 2.4873 16.296 3.6123 17.8455C6.4748 21.8016 10.5873 24.0875 14.9998 24.0875Z" stroke="#004877" stroke-width="2" stroke-linecap="round" stroke-linejoin="round"/>
</svg>
