<svg width="107" height="32" viewBox="0 0 107 32" fill="none" xmlns="http://www.w3.org/2000/svg">
<path d="M6.25781 31.1641C5.36719 31.1641 4.53906 30.8672 3.77344 30.2734C3.02344 29.6797 2.64844 28.8984 2.64844 27.9297C2.69531 26.9297 2.96094 24.9219 3.44531 21.9062C4.46094 15.6719 5.46875 10.3203 6.46875 5.85156C4.95312 5.85156 3.54688 5.86719 2.25 5.89844C1.78125 5.89844 1.42969 5.6875 1.19531 5.26562C0.960938 4.82812 0.84375 4.32031 0.84375 3.74219C0.84375 3.02344 1.03125 2.34375 1.40625 1.70312C1.79688 1.04688 2.39844 0.671875 3.21094 0.578125C4.96094 0.46875 7.75 0.414062 11.5781 0.414062C13.3906 0.414062 15.0234 0.4375 16.4766 0.484375C17.3203 0.53125 17.9297 0.773437 18.3047 1.21094C18.6797 1.64844 18.8672 2.16406 18.8672 2.75781C18.8672 3.49219 18.6172 4.20313 18.1172 4.89062C17.6172 5.5625 16.9844 5.89844 16.2188 5.89844H13.1016C13.1016 6.05469 11.8828 13.4844 9.44531 28.1875C9.24219 29.2344 8.83594 29.9922 8.22656 30.4609C7.63281 30.9297 6.97656 31.1641 6.25781 31.1641ZM15.5859 31H15.2578C13.3984 30.9219 12.2969 30.125 11.9531 28.6094C11.9375 28.5156 11.9297 28.3906 11.9297 28.2344C11.9297 26.6562 12.8281 21.5312 14.625 12.8594C14.7656 12.2812 15.1406 11.8203 15.75 11.4766C16.375 11.1172 17.0469 10.9375 17.7656 10.9375C18.3906 10.9375 18.9141 11.0547 19.3359 11.2891C19.6484 11.4922 19.8906 11.7656 20.0625 12.1094C20.25 12.4531 20.3438 12.7656 20.3438 13.0469C20.3125 13.4844 20.2812 13.7812 20.25 13.9375L20.1562 14.4766C20.7812 13.2266 21.4844 12.2969 22.2656 11.6875C23.0625 11.0625 23.875 10.75 24.7031 10.75C25.6406 10.7656 26.4453 11.0859 27.1172 11.7109C27.8047 12.3359 28.1797 13.2812 28.2422 14.5469C28.2422 15.1719 28.1172 15.7812 27.8672 16.375C27.6172 16.9688 27.2578 17.4531 26.7891 17.8281C26.3203 18.2031 25.7422 18.3906 25.0547 18.3906C24.6328 18.3906 24.2031 18.3047 23.7656 18.1328C23.3281 17.9609 22.9609 17.7031 22.6641 17.3594C22.3828 17.0156 22.2422 16.5859 22.2422 16.0703C22.1797 16.1797 21.5469 18.25 20.3438 22.2812L18.2344 29.3828C18.0781 29.9297 17.7578 30.3359 17.2734 30.6016C16.7891 30.8672 16.2266 31 15.5859 31ZM32.8828 31.4219H32.6953C31.8203 31.375 30.9609 31.0859 30.1172 30.5547C29.2734 30.0078 28.6172 29.1875 28.1484 28.0938C27.8047 27.0938 27.6328 26.0859 27.6328 25.0703C27.6328 24.5859 27.6641 24.1172 27.7266 23.6641C27.8984 22.4453 28.1094 21.1016 28.3594 19.6328C28.7812 16.9922 29.1562 14.9141 29.4844 13.3984C29.7031 12.4766 30.1172 11.8047 30.7266 11.3828C31.3516 10.9609 32.0156 10.75 32.7188 10.75C33.5156 10.75 34.2422 10.9922 34.8984 11.4766C35.5547 11.9453 35.8828 12.6016 35.8828 13.4453L35.8359 13.9141C35.1484 18.1016 34.5703 21.5469 34.1016 24.25C34.0391 24.6719 33.9922 25.0859 33.9609 25.4922C33.9609 25.9297 34.0234 26.25 34.1484 26.4531C34.2891 26.6406 34.4453 26.7344 34.6172 26.7344C35.6953 26.6562 36.8359 23.6641 38.0391 17.7578L38.2734 16.6797L38.5078 15.4844C38.6641 14.5938 38.8125 13.8125 38.9531 13.1406C39.125 12.3281 39.5078 11.7344 40.1016 11.3594C40.6953 10.9688 41.3281 10.7734 42 10.7734C42.7812 10.7734 43.4922 11 44.1328 11.4531C44.7891 11.9062 45.1172 12.5391 45.1172 13.3516C45.1172 13.4922 45.0156 14.2188 44.8125 15.5312L42.7266 28.7969C42.5859 29.5781 42.2422 30.1484 41.6953 30.5078C41.1484 30.8672 40.5469 31.0469 39.8906 31.0469C39.2031 31.0469 38.5625 30.875 37.9688 30.5312C37.3906 30.1719 37.0312 29.6875 36.8906 29.0781C35.7969 30.6406 34.4609 31.4219 32.8828 31.4219ZM66.9375 31.7734C66.2031 31.7734 65.4922 31.5469 64.8047 31.0938C64.1172 30.6562 63.6719 30.0156 63.4688 29.1719C63.4375 29.0469 63.4219 28.875 63.4219 28.6562C63.4219 27.5 63.7031 25.2578 64.2656 21.9297C64.625 19.6484 65.0547 17.2266 65.5547 14.6641H64.8281C64.3438 14.6641 63.9766 14.4922 63.7266 14.1484C63.4922 13.7891 63.375 13.375 63.375 12.9062C63.375 12.3125 63.5625 11.75 63.9375 11.2188C64.3281 10.6719 64.8984 10.3984 65.6484 10.3984H66.3984L66.8906 8.17188C67.3281 6.07813 68.1094 4.32031 69.2344 2.89844C70.375 1.46094 71.9453 0.640625 73.9453 0.4375L74.625 0.414062C75.3438 0.414062 76.1094 0.523438 76.9219 0.742188C77.7344 0.960937 78.3125 1.38281 78.6562 2.00781C78.8125 2.35156 78.8906 2.69531 78.8906 3.03906C78.8906 3.60156 78.7188 4.10938 78.375 4.5625C78.0312 5 77.5312 5.23438 76.875 5.26562C74.7656 5.45312 73.3984 7.10156 72.7734 10.2109C72.7734 10.2578 72.7656 10.2969 72.75 10.3281C73.6719 10.3281 74.4844 10.3516 75.1875 10.3984C75.8125 10.4922 76.2578 10.7188 76.5234 11.0781C76.8047 11.4219 76.9453 11.8125 76.9453 12.25C76.9453 12.8281 76.7578 13.3672 76.3828 13.8672C76.0234 14.3516 75.5469 14.6094 74.9531 14.6406L72.0469 14.6641L69.5156 29.875C69.3906 30.5156 69.0781 30.9922 68.5781 31.3047C68.0938 31.6172 67.5469 31.7734 66.9375 31.7734ZM81.6797 31.4688C80.6172 31.4688 79.6016 31.2344 78.6328 30.7656C77.6641 30.2812 76.8438 29.5703 76.1719 28.6328C75.1562 27.1953 74.6484 25.3516 74.6484 23.1016C74.6484 21.1484 75.0469 19.1953 75.8438 17.2422C76.6562 15.2891 77.7812 13.6641 79.2188 12.3672C80.6562 11.0703 82.3438 10.3828 84.2812 10.3047C85.6094 10.3047 86.7188 10.6016 87.6094 11.1953C88.5 11.7891 89.1797 12.5469 89.6484 13.4688C90.1328 14.3906 90.375 15.3594 90.375 16.375C90.375 17.2656 90.1641 18.1328 89.7422 18.9766C89.3359 19.8047 88.6875 20.5078 87.7969 21.0859C86.9219 21.6641 85.7891 22.0391 84.3984 22.2109C83.4297 22.3047 82.2969 22.3516 81 22.3516C80.7969 23.1328 80.6953 23.8438 80.6953 24.4844C80.6953 25.375 81.0547 25.9453 81.7734 26.1953C81.9453 26.2578 82.1172 26.2891 82.2891 26.2891C83.1328 26.2891 83.9766 25.625 84.8203 24.2969C85.3359 23.4844 85.9688 23.0781 86.7188 23.0781C87.2656 23.0781 87.75 23.2891 88.1719 23.7109C88.6094 24.1172 88.8281 24.6484 88.8281 25.3047C88.8281 25.6797 88.7344 26.0859 88.5469 26.5234C87.4219 28.8359 85.9531 30.3281 84.1406 31C83.3281 31.3125 82.5078 31.4688 81.6797 31.4688ZM81.8906 18.7656C83.2188 18.7656 84.125 18.4844 84.6094 17.9219C84.9844 17.4844 85.1719 17.0547 85.1719 16.6328C85.1719 16.3516 85.1016 16.1094 84.9609 15.9062C84.8203 15.7031 84.625 15.6016 84.375 15.6016C84.1875 15.6016 83.9688 15.6797 83.7188 15.8359C83.0781 16.2734 82.4688 17.25 81.8906 18.7656ZM93.8672 31H93.5391C91.6797 30.9219 90.5781 30.125 90.2344 28.6094C90.2188 28.5156 90.2109 28.3906 90.2109 28.2344C90.2109 26.6562 91.1094 21.5312 92.9062 12.8594C93.0469 12.2812 93.4219 11.8203 94.0312 11.4766C94.6562 11.1172 95.3281 10.9375 96.0469 10.9375C96.6719 10.9375 97.1953 11.0547 97.6172 11.2891C97.9297 11.4922 98.1719 11.7656 98.3438 12.1094C98.5312 12.4531 98.625 12.7656 98.625 13.0469C98.5938 13.4844 98.5625 13.7812 98.5312 13.9375L98.4375 14.4766C99.0625 13.2266 99.7656 12.2969 100.547 11.6875C101.344 11.0625 102.156 10.75 102.984 10.75C103.922 10.7656 104.727 11.0859 105.398 11.7109C106.086 12.3359 106.461 13.2812 106.523 14.5469C106.523 15.1719 106.398 15.7812 106.148 16.375C105.898 16.9688 105.539 17.4531 105.07 17.8281C104.602 18.2031 104.023 18.3906 103.336 18.3906C102.914 18.3906 102.484 18.3047 102.047 18.1328C101.609 17.9609 101.242 17.7031 100.945 17.3594C100.664 17.0156 100.523 16.5859 100.523 16.0703C100.461 16.1797 99.8281 18.25 98.625 22.2812L96.5156 29.3828C96.3594 29.9297 96.0391 30.3359 95.5547 30.6016C95.0703 30.8672 94.5078 31 93.8672 31Z" fill="white"/>
<path d="M57.8672 31.5625C57.0391 31.5625 56.2812 31.3125 55.5938 30.8125C54.9062 30.3125 54.5625 29.6406 54.5625 28.7969C54.5938 28.3906 54.7578 27.1875 55.0547 25.1875C55.5547 21.9062 55.9531 19.4219 56.25 17.7344C56.3594 17.125 56.4141 16.6328 56.4141 16.2578C56.4141 15.4922 56.2344 15.1094 55.875 15.1094C55.6094 15.1094 55.2969 15.3438 54.9375 15.8125C54.5781 16.2656 54.2734 16.8438 54.0234 17.5469C53.7109 18.4844 53.3906 19.5312 53.0625 20.6875C52.6875 22.0625 52.4141 23.2422 52.2422 24.2266C52.2422 24.2734 52.2344 24.3047 52.2188 24.3203L51.3516 29.3828C51.2422 29.9297 50.9219 30.3516 50.3906 30.6484C49.8594 30.9453 49.2656 31.0938 48.6094 31.0938C47.875 31.0938 47.1797 30.8984 46.5234 30.5078C45.8828 30.1172 45.4609 29.5156 45.2578 28.7031C45.2422 28.5938 45.2344 28.4453 45.2344 28.2578C45.2344 26.4766 46.0234 21.3438 47.6016 12.8594C47.7734 12.0625 48.1016 11.4922 48.5859 11.1484C49.0859 10.7891 49.6328 10.6094 50.2266 10.6094C50.9297 10.6094 51.5781 10.8047 52.1719 11.1953C52.7812 11.5859 53.1562 12.0938 53.2969 12.7188C53.9062 12.0625 54.5938 11.5625 55.3594 11.2188C56.1406 10.875 56.9297 10.7031 57.7266 10.7031C58.7109 10.7031 59.6328 10.9922 60.4922 11.5703C61.3516 12.1328 62 13 62.4375 14.1719C62.7344 15.0469 62.8828 15.9688 62.8828 16.9375C62.8828 17.5625 62.8281 18.1953 62.7188 18.8359L61.9688 23.1719C61.5469 25.5312 61.2188 27.4297 60.9844 28.8672C60.7969 29.8047 60.4062 30.4922 59.8125 30.9297C59.2188 31.3516 58.5703 31.5625 57.8672 31.5625Z" fill="#FFBF3F"/>
</svg>
